HIERARCHY
ROOT Hips
{
	OFFSET	0.00	0.00	0.00
	CHANNELS 6 Xposition Yposition Zposition Zrotation Xrotation Yrotation
	JOINT LeftUpLeg
	{
		OFFSET	 0.126116	-0.065224	 0.014019
		CHANNELS 3 Zrotation Xrotation Yrotation
		JOINT LeftLeg
		{
			OFFSET	 0.000000	 0.569914	 0.000000
			CHANNELS 3 Zrotation Xrotation Yrotation
			JOINT LeftFoot
			{
				OFFSET	 0.000000	 0.544423	 0.000000
				CHANNELS 3 Zrotation Xrotation Yrotation
				JOINT LeftToeBase
				{
					OFFSET	 0.000000	 0.207117	 0.000000
					CHANNELS 3 Zrotation Xrotation Yrotation
					End Site
					{
						OFFSET	 0.000000	 0.207117	 0.000000
					}
				}
			}
		}
	}
	JOINT RightUpLeg
	{
		OFFSET	-0.124023	-0.065224	 0.008373
		CHANNELS 3 Zrotation Xrotation Yrotation
		JOINT RightLeg
		{
			OFFSET	 0.000000	 0.570047	 0.000000
			CHANNELS 3 Zrotation Xrotation Yrotation
			JOINT RightFoot
			{
				OFFSET	 0.000000	 0.544354	 0.000000
				CHANNELS 3 Zrotation Xrotation Yrotation
				JOINT RightToeBase
				{
					OFFSET	 0.000000	 0.207540	 0.000000
					CHANNELS 3 Zrotation Xrotation Yrotation
					End Site
					{
						OFFSET	 0.000000	 0.207540	 0.000000
					}
				}
			}
		}
	}
	JOINT Spine
	{
		OFFSET	 0.000184	 0.117403	 0.007763
		CHANNELS 3 Zrotation Xrotation Yrotation
		JOINT Spine1
		{
			OFFSET	 0.000000	 0.137269	 0.000000
			CHANNELS 3 Zrotation Xrotation Yrotation
			JOINT Spine2
			{
				OFFSET	 0.000000	 0.156879	 0.000000
				CHANNELS 3 Zrotation Xrotation Yrotation
				JOINT LeftShoulder
				{
					OFFSET	 0.080501	 0.160143	 0.002496
					CHANNELS 3 Zrotation Xrotation Yrotation
					JOINT LeftArm
					{
						OFFSET	 0.000000	 0.164363	 0.000000
						CHANNELS 3 Zrotation Xrotation Yrotation
						JOINT LeftForeArm
						{
							OFFSET	 0.000000	 0.364576	 0.000000
							CHANNELS 3 Zrotation Xrotation Yrotation
							JOINT LeftHand
							{
								OFFSET	 0.000000	 0.360812	 0.000000
								CHANNELS 3 Zrotation Xrotation Yrotation
								JOINT LeftHandIndex1
								{
									OFFSET	 0.000000	 0.086006	 0.000000
									CHANNELS 3 Zrotation Xrotation Yrotation
									JOINT LeftHandIndex2
									{
										OFFSET	 0.000000	 0.047237	 0.000000
										CHANNELS 3 Zrotation Xrotation Yrotation
										JOINT LeftHandIndex3
										{
											OFFSET	-0.004284	 0.038165	 0.000551
											CHANNELS 3 Zrotation Xrotation Yrotation
											End Site
											{
												OFFSET	-0.004284	 0.038165	 0.000551
											}
										}
									}
								}
							}
						}
					}
				}
				JOINT Neck
				{
					OFFSET	 0.000000	 0.176489	 0.000000
					CHANNELS 3 Zrotation Xrotation Yrotation
					JOINT Head
					{
						OFFSET	 0.000000	 0.077941	 0.001747
						CHANNELS 3 Zrotation Xrotation Yrotation
						End Site
						{
							OFFSET	 0.000000	 0.077941	 0.001747
						}
					}
				}
				JOINT RightShoulder
				{
					OFFSET	-0.080363	 0.159706	-0.000306
					CHANNELS 3 Zrotation Xrotation Yrotation
					JOINT RightArm
					{
						OFFSET	 0.000000	 0.164196	 0.000000
						CHANNELS 3 Zrotation Xrotation Yrotation
						JOINT RightForeArm
						{
							OFFSET	 0.000000	 0.365611	 0.000000
							CHANNELS 3 Zrotation Xrotation Yrotation
							JOINT RightHand
							{
								OFFSET	 0.000000	 0.360648	 0.000000
								CHANNELS 3 Zrotation Xrotation Yrotation
								JOINT RightHandIndex1
								{
									OFFSET	 0.000000	 0.069977	 0.000000
									CHANNELS 3 Zrotation Xrotation Yrotation
									JOINT RightHandIndex2
									{
										OFFSET	 0.000000	 0.052305	 0.000000
										CHANNELS 3 Zrotation Xrotation Yrotation
										JOINT RightHandIndex3
										{
											OFFSET	 0.009002	 0.042196	 0.000782
											CHANNELS 3 Zrotation Xrotation Yrotation
											End Site
											{
												OFFSET	 0.009002	 0.042196	 0.000782
											}
										}
									}
								}
							}
						}
					}
				}
			}
		}
	}
}
MOTION
Frames:    8
Frame Time: 0.03333334
 0.001981	 1.271637	 0.064731	 0.018482	-0.766845	 179.979200	-175.561800	 1.598175	-17.875800	 2.056193	-9.612628	-0.084539	-5.580445	 68.847910	 4.443017	 1.292262	 28.425850	-2.713146	 175.530400	 2.344893	 17.882170	-2.218169	-10.661690	 0.059245	 5.791683	 69.283080	-4.671605	-1.288183	 28.361890	 2.710176	 0.044088	 1.968663	 2.755651	-0.784687	 3.541981	 1.468297	 0.652781	-4.594392	-4.170914	-101.478000	 1.740669	 90.353380	-0.052079	 59.217770	 2.188052	 2.036757	 4.253151	 1.379470	 14.283020	 4.428569	 7.865260	-6.580301	 5.266122	 0.000000	 0.000000	 0.000000	 0.000000	 0.000000	 0.000000	 0.000000	 0.089846	-3.783161	 0.005928	 0.010930	 1.223034	-1.024027	 101.796200	-0.213309	-89.955440	-72.944160	 0.409045	 62.425730	-19.493700	 27.111280	-1.335790	 3.839897	-19.359760	-70.879650	 15.208500	 5.323790	 0.000000	 0.000000	 0.000000	 0.000000	 0.000000	 0.000000	 0.000000
 0.001981	 1.271637	 0.064731	 0.018482	-0.766845	 179.979200	-175.561800	 1.598175	-17.875800	 2.056193	-9.612628	-0.084539	-5.580445	 68.847910	 4.443017	 1.292262	 28.425850	-2.713146	 175.530400	 2.344893	 17.882170	-2.218169	-10.661690	 0.059245	 5.791683	 69.283080	-4.671605	-1.288183	 28.361890	 2.710176	 0.044088	 1.968663	 2.755651	-0.784687	 3.541981	 1.468297	 0.652781	-4.594392	-4.170914	-101.478000	 1.740669	 90.353380	-0.072784	 59.127610	 2.174041	 2.035996	 4.251746	 1.379456	 14.290360	 4.317917	 7.879046	-6.580301	 5.266122	 0.000000	 0.000000	 0.000000	 0.000000	 0.000000	 0.000000	 0.000000	 0.089846	-3.783161	 0.005928	 0.010930	 1.223034	-1.024027	 101.796200	-0.213309	-89.955440	-76.826530	-0.910645	 62.543170	-14.876610	 21.499100	-3.465046	-0.140900	-17.358070	-74.230230	 15.208500	 5.323790	 0.000000	 0.000000	 0.000000	 0.000000	 0.000000	 0.000000	 0.000000
 0.001981	 1.271637	 0.064731	 0.018488	-0.766842	 179.979200	-175.561800	 1.598075	-17.875820	 2.056152	-9.612438	-0.084545	-5.580440	 68.847800	 4.443031	 1.292262	 28.425850	-2.713146	 175.530500	 2.344796	 17.882140	-2.218128	-10.661510	 0.059249	 5.791574	 69.282990	-4.671507	-1.288183	 28.361890	 2.710176	 0.044094	 1.968666	 2.755653	-0.784709	 3.541983	 1.468302	 0.652787	-4.594397	-4.170918	-101.478000	 1.740658	 90.353370	-0.055963	 59.203900	 2.175070	 2.036301	 4.252339	 1.379493	 14.280720	 4.342757	 7.880922	-6.580301	 5.266122	 0.000000	 0.000000	 0.000000	 0.000000	 0.000000	 0.000000	 0.000000	 0.089846	-3.783161	 0.005928	 0.010930	 1.223033	-1.024028	 101.796200	-0.213313	-89.955460	-73.736330	 0.158403	 62.367770	-18.508430	 25.967340	-1.914421	 2.076770	-19.273030	-72.834410	 15.208500	 5.323790	 0.000000	 0.000000	 0.000000	 0.000000	 0.000000	 0.000000	 0.000000
 0.001981	 1.271637	 0.064731	 0.018491	-0.766840	 179.979200	-175.561800	 1.598111	-17.875820	 2.056181	-9.612576	-0.084540	-5.580486	 68.847910	 4.443056	 1.292262	 28.425850	-2.713146	 175.530400	 2.344938	 17.882150	-2.218201	-10.661850	 0.059237	 5.791688	 69.283200	-4.671582	-1.288183	 28.361890	 2.710176	 0.044096	 1.968667	 2.755652	-0.784676	 3.541980	 1.468298	 0.652772	-4.594393	-4.170915	-101.478000	 1.740675	 90.353390	-0.008000	 59.417910	 2.183036	 2.036984	 4.253695	 1.379492	 14.255990	 4.457236	 7.878759	-6.580301	 5.266122	 0.000000	 0.000000	 0.000000	 0.000000	 0.000000	 0.000000	 0.000000	 0.089846	-3.783161	 0.005928	 0.010930	 1.223034	-1.024027	 101.796200	-0.213312	-89.955450	-66.780060	 2.991363	 61.472040	-27.378500	 35.204180	 2.945282	 7.782020	-23.006860	-67.523770	 15.208500	 5.323790	 0.000000	 0.000000	 0.000000	 0.000000	 0.000000	 0.000000	 0.000000
 0.001981	 1.271637	 0.064731	 0.018471	-0.766842	 179.979200	-175.561800	 1.598028	-17.875780	 2.056142	-9.612396	-0.084545	-5.580341	 68.847800	 4.442923	 1.292262	 28.425850	-2.713146	 175.530400	 2.344887	 17.882160	-2.218170	-10.661690	 0.059239	 5.791662	 69.283070	-4.671581	-1.288183	 28.361890	 2.710176	 0.044089	 1.968665	 2.755625	-0.784701	 3.541980	 1.468271	 0.652781	-4.594424	-4.170912	-101.478000	 1.740659	 90.353370	 0.045639	 59.656180	 2.185477	 2.037602	 4.254931	 1.379412	 14.226190	 4.543042	 7.883738	-6.580301	 5.266122	 0.000000	 0.000000	 0.000000	 0.000000	 0.000000	 0.000000	 0.000000	 0.089846	-3.783161	 0.005928	 0.010930	 1.223034	-1.024027	 101.796200	-0.213311	-89.955450	-60.608280	 5.921711	 59.822810	-36.193240	 42.175550	 8.795817	 12.255150	-26.008680	-62.027170	 15.208500	 5.323790	 0.000000	 0.000000	 0.000000	 0.000000	 0.000000	 0.000000	 0.000000
 0.001981	 1.271637	 0.064731	 0.018482	-0.766845	 179.979200	-175.561800	 1.598175	-17.875800	 2.056193	-9.612628	-0.084539	-5.580445	 68.847910	 4.443017	 1.292262	 28.425850	-2.713146	 175.530400	 2.344893	 17.882170	-2.218169	-10.661690	 0.059245	 5.791683	 69.283080	-4.671605	-1.288183	 28.361890	 2.710176	 0.044088	 1.968663	 2.755651	-0.784687	 3.541981	 1.468297	 0.652781	-4.594392	-4.170914	-101.478000	 1.740669	 90.353380	 0.096523	 59.879650	 2.181947	 2.038009	 4.255877	 1.379321	 14.196660	 4.598203	 7.894306	-6.580301	 5.266122	 0.000000	 0.000000	 0.000000	 0.000000	 0.000000	 0.000000	 0.000000	 0.089846	-3.783161	 0.005928	 0.010930	 1.223034	-1.024027	 101.796200	-0.213309	-89.955440	-55.561910	 8.506043	 57.771780	-44.022240	 46.834670	 14.572580	 15.250720	-28.239620	-57.298610	 15.208500	 5.323790	 0.000000	 0.000000	 0.000000	 0.000000	 0.000000	 0.000000	 0.000000
 0.001981	 1.271637	 0.064731	 0.018482	-0.766845	 179.979200	-175.561800	 1.598175	-17.875800	 2.056193	-9.612628	-0.084539	-5.580445	 68.847910	 4.443017	 1.292262	 28.425850	-2.713146	 175.530400	 2.344893	 17.882170	-2.218169	-10.661690	 0.059245	 5.791683	 69.283080	-4.671605	-1.288183	 28.361890	 2.710176	 0.044088	 1.968663	 2.755651	-0.784687	 3.541982	 1.468296	 0.652779	-4.594392	-4.170918	-101.478000	 1.740661	 90.353370	 0.156457	 60.142380	 2.173552	 2.038728	 4.257403	 1.379295	 14.160320	 4.641284	 7.911323	-6.580301	 5.266122	 0.000000	 0.000000	 0.000000	 0.000000	 0.000000	 0.000000	 0.000000	 0.089846	-3.783161	 0.005928	 0.010930	 1.223033	-1.024026	 101.796200	-0.213312	-89.955440	-50.153900	 11.363690	 54.808570	-52.740420	 50.684310	 21.447590	 17.603220	-30.401380	-52.263320	 15.208500	 5.323790	 0.000000	 0.000000	 0.000000	 0.000000	 0.000000	 0.000000	 0.000000
 0.001981	 1.271637	 0.064731	 0.018473	-0.766840	 179.979200	-175.561800	 1.598220	-17.875770	 2.056227	-9.612784	-0.084532	-5.580401	 68.848010	 4.442941	 1.292262	 28.425850	-2.713146	 175.530400	 2.344988	 17.882130	-2.218208	-10.661880	 0.059233	 5.791600	 69.283170	-4.671495	-1.288183	 28.361890	 2.710176	 0.044079	 1.968667	 2.755625	-0.784688	 3.541980	 1.468272	 0.652789	-4.594429	-4.170906	-101.478000	 1.740670	 90.353370	 0.727370	 62.470520	 1.998840	 2.042498	 4.265120	 1.379009	 13.809770	 4.639915	 8.125356	-6.580301	 5.266122	 0.000000	 0.000000	 0.000000	 0.000000	 0.000000	 0.000000	 0.000000	 0.089846	-3.783161	 0.005928	 0.010930	 1.223033	-1.024028	 101.796200	-0.213313	-89.955440	-14.746330	 30.572280	 15.437530	-68.315520	 54.952540	 36.359040	 3.571696	-33.901290	-27.697580	 15.208500	 5.323790	 0.000000	 0.000000	 0.000000	 0.000000	 0.000000	 0.000000	 0.000000
